<?xml version="1.0" encoding="utf-8"?>
<!-- Svg Vector Icons : http://www.onlinewebfonts.com/icon -->
<!DOCTYPE svg PUBLIC "-//W3C//DTD SVG 1.1//EN" "http://www.w3.org/Graphics/SVG/1.1/DTD/svg11.dtd">
<svg version="1.1" xmlns="http://www.w3.org/2000/svg" xmlns:xlink="http://www.w3.org/1999/xlink" x="0px" y="0px" viewBox="0 0 1000 1000" enable-background="new 0 0 1000 1000" xml:space="preserve">
<metadata> Svg Vector Icons : http://www.onlinewebfonts.com/icon </metadata>
<g><path d="M573.3,500.8l403-403c18.3-18.3,18.3-48.8,0-73.3c-18.3-18.3-48.8-18.3-73.3,0l-403,403L97,24.5c-18.3-18.3-48.8-18.3-73.3,0c-18.3,18.3-18.3,48.8,0,73.3l403,403l-403,403c-18.3,18.3-18.3,48.8,0,73.3c12.2,6.1,24.4,12.2,36.6,12.2S84.8,983.1,97,977l403-403l403,403c12.2,12.2,24.4,12.2,36.6,12.2s24.4-6.1,36.6-12.2c18.3-18.3,18.3-48.8,0-73.3L573.3,500.8z"/></g>
</svg>